<svg width="348" height="348" viewBox="0 0 348 348" fill="none" xmlns="http://www.w3.org/2000/svg">
<rect x="114.355" y="152.212" width="6.3287" height="56.1218" transform="rotate(45 114.355 152.212)" fill="white"/>
<rect x="155.6" y="152" width="6.3287" height="56.1218" transform="rotate(45 155.6 152)" fill="white"/>
<rect width="6.3287" height="56.1218" transform="matrix(-0.706381 0.707832 0.707832 0.706381 155.6 152)" fill="white"/>
<rect x="190.854" y="152" width="6.3287" height="56.1218" transform="rotate(45.0588 190.854 152)" fill="white"/>
<rect x="73" y="152.2" width="6" height="44" fill="white"/>
<rect x="114.35" y="152.2" width="6" height="44" fill="white"/>
<rect width="6.3287" height="56.1218" transform="matrix(-0.707107 0.707107 0.707107 0.707107 232.72 152.412)" fill="white"/>
<rect width="6.3287" height="56.1218" transform="matrix(-0.707107 0.707107 0.707107 0.707107 191.475 152.2)" fill="white"/>
<rect width="6" height="44" transform="matrix(-1 0 0 1 274.075 152.4)" fill="white"/>
<rect width="6" height="44" transform="matrix(-1 0 0 1 232.725 152.4)" fill="white"/>
</svg>
