<svg width="202" height="45" viewBox="0 0 202 45" fill="none" xmlns="http://www.w3.org/2000/svg">
<rect x="41.355" y="0.212402" width="6.3287" height="56.1218" transform="rotate(45 41.355 0.212402)" fill="white"/>
<rect x="82.6001" width="6.3287" height="56.1218" transform="rotate(45 82.6001 0)" fill="white"/>
<rect width="6.3287" height="56.1218" transform="matrix(-0.706381 0.707832 0.707832 0.706381 82.6001 0)" fill="white"/>
<rect x="117.854" width="6.3287" height="56.1218" transform="rotate(45.0588 117.854 0)" fill="white"/>
<rect y="0.200012" width="6" height="44" fill="white"/>
<rect x="41.3501" y="0.200012" width="6" height="44" fill="white"/>
<rect width="6.3287" height="56.1218" transform="matrix(-0.707107 0.707107 0.707107 0.707107 159.72 0.412354)" fill="white"/>
<rect width="6.3287" height="56.1218" transform="matrix(-0.707107 0.707107 0.707107 0.707107 118.475 0.200012)" fill="white"/>
<rect width="6" height="44" transform="matrix(-1 0 0 1 201.075 0.400024)" fill="white"/>
<rect width="6" height="44" transform="matrix(-1 0 0 1 159.725 0.400024)" fill="white"/>
</svg>
